<?xml version="1.0" encoding="utf-8"?>
<!-- Generator: Adobe Illustrator 22.1.0, SVG Export Plug-In . SVG Version: 6.00 Build 0)  -->
<svg version="1.1" id="Capa_1" xmlns="http://www.w3.org/2000/svg" xmlns:xlink="http://www.w3.org/1999/xlink" x="0px" y="0px"
	 viewBox="0 0 46.4 46.4" style="enable-background:new 0 0 46.4 46.4;" xml:space="preserve">
<style type="text/css">
	.st0{fill:#FFFFFF;}
</style>
<g>
	<path class="st0" d="M40.2,17H29.4V6.1c0-3.4-2.8-6.1-6.2-6.1C19.8,0,17,2.8,17,6.1V17H6.1C2.8,17,0,19.8,0,23.2
		c0,3.4,2.8,6.1,6.1,6.1H17v10.9c0,3.4,2.8,6.1,6.2,6.1c3.4,0,6.2-2.7,6.2-6.1V29.3l10.9,0c3.4,0,6.1-2.8,6.1-6.1
		C46.4,19.8,43.6,17,40.2,17z"/>
</g>
</svg>
