<?xml version="1.0"?>
<svg xmlns="http://www.w3.org/2000/svg" height="512px" viewBox="0 0 512.00002 512.00002" width="512px"><path d="m256 0c-141.386719 0-256 114.613281-256 256s114.613281 256 256 256 256-114.613281 256-256c-.160156-141.316406-114.683594-255.839844-256-256zm0 484.570312c-126.238281 0-228.570312-102.332031-228.570312-228.570312s102.332031-228.570312 228.570312-228.570312 228.570312 102.332031 228.570312 228.570312c-.140624 126.179688-102.390624 228.429688-228.570312 228.570312zm0 0" fill="#FFFFFF"/><path d="m161.519531 324.882812c-41.636719-73.554687-41.367187-163.617187.710938-236.917968 2.835937-4.921875 5.851562-9.738282 8.980469-14.464844 3.328124-4.902344 6.882812-9.601562 10.53125-14.199219-58.90625 22.394531-104.738282 69.921875-124.984376 129.601563 14.941407 57.703125 52.777344 106.8125 104.761719 135.980468zm0 0" fill="#FFFFFF"/><path d="m151.863281 243.527344c5.75 34.824218 19.832031 67.742187 41.050781 95.945312 33.007813 12.234375 68.449219 16.453125 103.40625 12.308594 27.09375-22.4375 48.476563-50.988281 62.382813-83.300781-5.804687-34.78125-19.875-67.660157-41.027344-95.871094-33.035156-12.316406-68.535156-16.558594-103.539062-12.378906-27.039063 22.464843-48.375 51.011719-62.273438 83.296875zm0 0" fill="#FFFFFF"/><path d="m148.902344 209.0625c14.585937-24.714844 33.449218-46.636719 55.707031-64.75.292969-.230469.582031-.449219.914063-.640625 18.910156-15.171875 40.027343-27.355469 62.628906-36.132813h.089844l.230468-.101562c.226563-.089844.464844-.164062.703125-.238281 27.152344-10.472657 56.007813-15.820313 85.109375-15.769531 11.984375.015624 23.949219.933593 35.792969 2.742187-48.660156-40.433594-112.964844-56.757813-175.019531-44.425781-10.691406 10.300781-20.296875 21.667968-28.664063 33.929687-2.84375 4.316407-5.675781 8.824219-8.328125 13.421875-19.523437 34.054688-29.59375 72.710938-29.164062 111.964844zm0 0" fill="#FFFFFF"/><path d="m156.160156 402.285156c27.105469.023438 53.984375-4.976562 79.269532-14.746094 11.300781-4.421874 22.222656-9.757812 32.65625-15.953124-28.796876-.230469-57.320313-5.625-84.214844-15.929688-.21875-.082031-.429688-.191406-.648438-.28125h-.054687c-61.382813-23.847656-110.148438-72.050781-134.710938-133.148438-10.128906 61.871094 7.984375 125.027344 49.371094 172.125 13.910156 3.789063 28.15625 6.238282 42.53125 7.3125 4.949219.429688 10.078125.621094 15.800781.621094zm0 0" fill="#FFFFFF"/><path d="m414.703125 118.261719c-45.953125-13.230469-94.96875-11.054688-139.566406 6.191406-.246094.097656-.496094.183594-.75.253906-11.082031 4.339844-21.785157 9.585938-32 15.691407 28.832031.214843 57.390625 5.636718 84.296875 16.007812 23.074218 8.820312 44.625 21.203125 63.863281 36.699219.242187.195312.46875.402343.683594.621093l.074219.066407.109374.097656c22.515626 18.238281 41.472657 40.472656 55.917969 65.59375 2.816407 4.890625 5.484375 9.964844 7.992188 14.957031 2.851562 5.824219 5.375 11.886719 7.742187 17.957032 11.070313-62.375-6.714844-126.402344-48.363281-174.136719zm0 0" fill="#FFFFFF"/><path d="m431.488281 268.609375c-13.5-23.476563-31.273437-44.21875-52.398437-61.15625-.292969-.238281-.570313-.496094-.832032-.769531-9.246093-7.339844-19.070312-13.917969-29.375-19.675782 48.433594 84.722657 40.144532 190.441407-20.902343 266.578126 59.128906-21.722657 105.480469-68.691407 126.417969-128.101563-3.652344-14.789063-8.835938-29.15625-15.46875-42.871094-2.292969-4.589843-4.78125-9.386719-7.441407-14.003906zm0 0" fill="#FFFFFF"/><path d="m361.628906 302.949219c-27.265625 46.394531-69.40625 82.214843-119.589844 101.640625-27.394531 10.585937-56.511718 16.003906-85.878906 15.980468-6.246094 0-11.886718-.21875-17.226562-.667968-5.640625-.417969-11.261719-1.105469-16.867188-1.910156 48.160156 39.964843 111.664063 56.3125 173.136719 44.574218 43.148437-41.808594 67.175781-99.542968 66.425781-159.617187zm0 0" fill="#FFFFFF"/></svg>
