<?xml version="1.0" encoding="utf-8"?>
<!-- Generator: Adobe Illustrator 22.1.0, SVG Export Plug-In . SVG Version: 6.00 Build 0)  -->
<svg version="1.1" id="Capa_1" xmlns="http://www.w3.org/2000/svg" xmlns:xlink="http://www.w3.org/1999/xlink" x="0px" y="0px"
	 viewBox="0 0 682.7 682.7" style="enable-background:new 0 0 682.7 682.7;" xml:space="preserve">
<style type="text/css">
	.st0{fill:#FFC37F;}
</style>
<path class="st0" d="M648.5,431h-18.4c18.9-17.4,30.9-42.3,30.9-70c0-39.6-24.3-73.5-58.8-87.8c15.3-13.3,25-32.9,25-54.7
	c0-40-32.5-72.5-72.5-72.5h-17.5V33.5c0-6.9-5.6-12.5-12.5-12.5H191c-41.4,0-75,33.6-75,75c0,19.2,7.3,36.7,19.2,50H67.2
	c-6.9,0-12.5,5.6-12.5,12.5V266H33.5c-6.9,0-12.5,5.6-12.5,12.5v165c0,6.9,5.6,12.5,12.5,12.5h31C38,477.1,21,509.6,21,546
	c0,63.4,51.6,115,115,115h512.5c6.9,0,12.5-5.6,12.5-12.5v-205C661,436.6,655.4,431,648.5,431z M571,456v61.6l-18.7-18.5
	c-2.4-2.4-5.6-3.6-8.8-3.6s-6.3,1.2-8.8,3.6L516,517.6V456H571z M566,291c38.6,0,70,31.4,70,70s-31.4,70-70,70H390.1
	c18.9-17.4,30.9-42.3,30.9-70s-11.9-52.6-30.9-70H566z M602.2,218.5c0,26.2-21.3,47.5-47.5,47.5H369.5
	c11.1-12.7,17.8-29.3,17.8-47.5s-6.7-34.8-17.8-47.5h185.3C580.9,171,602.2,192.3,602.2,218.5z M512.2,46v100H369.8
	c-27.6,0-50-22.4-50-50s22.4-50,50-50H512.2z M141,96c0-27.6,22.4-50,50-50h122.9c-11.9,13.3-19.2,30.8-19.2,50s7.3,36.7,19.2,50
	H191C163.4,146,141,123.6,141,96z M79.8,171h235c26.2,0,47.5,21.3,47.5,47.5S340.9,266,314.8,266h-235V171z M46,431v-30h225
	c6.9,0,12.5-5.6,12.5-12.5S277.9,376,271,376H46v-30h275c6.9,0,12.5-5.6,12.5-12.5S327.9,321,321,321H46v-30h280
	c38.6,0,70,31.4,70,70s-31.4,70-70,70H46z M136,636c-27.8,0-52.7-12.7-69.2-32.5h136.7c6.9,0,12.5-5.6,12.5-12.5
	s-5.6-12.5-12.5-12.5H52.1c-3.9-10.1-6.1-21-6.1-32.5c0-49.6,40.4-90,90-90h224.4c-26.5,21.1-43.5,53.6-43.5,90s17,68.9,43.5,90H136
	z M636,636H431.9c-49.6,0-90-40.4-90-90s40.4-90,90-90H491v91.5c0,5,3,9.6,7.7,11.5c4.6,1.9,10,0.9,13.6-2.6l31.2-30.8l31.2,30.8
	c2.4,2.4,5.6,3.6,8.8,3.6c1.6,0,3.3-0.3,4.8-1c4.7-1.9,7.7-6.5,7.7-11.5V456h40V636z"/>
<path class="st0" d="M335.8,388.5c0-3.3-1.3-6.5-3.7-8.8c-2.3-2.3-5.5-3.7-8.8-3.7c-3.3,0-6.5,1.3-8.8,3.7c-2.3,2.3-3.7,5.6-3.7,8.8
	s1.3,6.5,3.7,8.8c2.3,2.3,5.5,3.7,8.8,3.7c3.3,0,6.5-1.3,8.8-3.7C334.5,395,335.8,391.8,335.8,388.5z"/>
<path class="st0" d="M255.6,578.5c-3.3,0-6.5,1.3-8.8,3.7c-2.3,2.3-3.7,5.6-3.7,8.8s1.3,6.5,3.7,8.8c2.3,2.3,5.5,3.7,8.8,3.7
	c3.3,0,6.5-1.3,8.8-3.7c2.3-2.3,3.7-5.6,3.7-8.8s-1.3-6.5-3.7-8.8C262.1,579.8,258.9,578.5,255.6,578.5z"/>
</svg>
