<svg height="682.66669pt" viewBox="-21 -21 682.66669 682.66669" width="682.66669pt" xmlns="http://www.w3.org/2000/svg"><path d="m627.5 410h-18.355469c18.949219-17.378906 30.855469-42.324219 30.855469-70 0-39.550781-24.300781-73.519531-58.75-87.796875 15.296875-13.300781 25-32.886719 25-54.703125 0-39.976562-32.523438-72.5-72.5-72.5h-17.5v-112.5c0-6.90625-5.59375-12.5-12.5-12.5h-333.75c-41.359375 0-75 33.640625-75 75 0 19.195312 7.257812 36.71875 19.160156 50h-67.910156c-6.90625 0-12.5 5.59375-12.5 12.5v107.5h-21.25c-6.90625 0-12.5 5.59375-12.5 12.5v165c0 6.90625 5.59375 12.5 12.5 12.5h30.996094c-26.484375 21.085938-43.496094 53.59375-43.496094 90 0 63.414062 51.585938 115 115 115h512.5c6.90625 0 12.5-5.59375 12.5-12.5v-205c0-6.90625-5.59375-12.5-12.5-12.5zm-77.5 25v61.585938l-18.714844-18.480469c-2.4375-2.402344-5.613281-3.605469-8.785156-3.605469s-6.347656 1.203125-8.785156 3.605469l-18.714844 18.480469v-61.585938zm-5-165c38.597656 0 70 31.402344 70 70s-31.402344 70-70 70h-175.855469c18.949219-17.378906 30.855469-42.324219 30.855469-70s-11.90625-52.621094-30.851562-70zm36.25-72.5c0 26.191406-21.308594 47.5-47.5 47.5h-185.296875c11.070313-12.734375 17.796875-29.339844 17.796875-47.5s-6.726562-34.765625-17.796875-47.5h185.296875c26.191406 0 47.5 21.308594 47.5 47.5zm-90-172.5v100h-142.5c-27.570312 0-50-22.429688-50-50s22.429688-50 50-50zm-371.25 50c0-27.570312 22.429688-50 50-50h122.910156c-11.902344 13.28125-19.160156 30.804688-19.160156 50s7.257812 36.71875 19.160156 50h-122.910156c-27.570312 0-50-22.429688-50-50zm-61.25 75h235c26.191406 0 47.5 21.308594 47.5 47.5s-21.308594 47.5-47.5 47.5h-235zm-33.75 260v-30h225c6.90625 0 12.5-5.59375 12.5-12.5s-5.59375-12.5-12.5-12.5h-225v-30h275c6.90625 0 12.5-5.59375 12.5-12.5s-5.59375-12.5-12.5-12.5h-275v-30h280c38.597656 0 70 31.402344 70 70s-31.402344 70-70 70zm90 205c-27.777344 0-52.652344-12.65625-69.175781-32.5h136.675781c6.90625 0 12.5-5.59375 12.5-12.5s-5.59375-12.5-12.5-12.5h-151.402344c-3.925781-10.085938-6.097656-21.039062-6.097656-32.5 0-49.625 40.375-90 90-90h224.375c-26.488281 21.085938-43.496094 53.59375-43.496094 90s17.007813 68.914062 43.496094 90zm500 0h-204.125c-49.625 0-90-40.375-90-90s40.375-90 90-90h59.125v91.5c0 5.042969 3.027344 9.589844 7.679688 11.53125 4.648437 1.949219 10.015624.910156 13.605468-2.636719l31.214844-30.828125 31.214844 30.828125c2.386718 2.355469 5.5625 3.605469 8.789062 3.605469 1.621094 0 3.257813-.320312 4.816406-.96875 4.652344-1.941406 7.679688-6.488281 7.679688-11.53125v-91.5h40zm0 0"/><path d="m314.785156 367.5c0-3.285156-1.332031-6.515625-3.660156-8.835938-2.328125-2.328124-5.546875-3.664062-8.839844-3.664062-3.285156 0-6.507812 1.335938-8.832031 3.664062-2.328125 2.320313-3.667969 5.550782-3.667969 8.835938s1.339844 6.515625 3.667969 8.835938c2.324219 2.328124 5.546875 3.664062 8.832031 3.664062 3.292969 0 6.511719-1.335938 8.839844-3.664062 2.328125-2.320313 3.660156-5.550782 3.660156-8.835938zm0 0"/><path d="m234.589844 557.5c-3.300782 0-6.511719 1.335938-8.839844 3.664062-2.335938 2.320313-3.660156 5.550782-3.660156 8.835938s1.324218 6.515625 3.660156 8.835938c2.328125 2.328124 5.539062 3.664062 8.839844 3.664062 3.285156 0 6.507812-1.335938 8.832031-3.664062 2.328125-2.320313 3.667969-5.550782 3.667969-8.835938s-1.339844-6.515625-3.667969-8.835938c-2.324219-2.328124-5.546875-3.664062-8.832031-3.664062zm0 0"/></svg>