<?xml version="1.0" encoding="utf-8"?>
<!-- Generator: Adobe Illustrator 22.1.0, SVG Export Plug-In . SVG Version: 6.00 Build 0)  -->
<svg version="1.1" id="Capa_1" xmlns="http://www.w3.org/2000/svg" xmlns:xlink="http://www.w3.org/1999/xlink" x="0px" y="0px"
	 viewBox="0 0 512 512" style="enable-background:new 0 0 512 512;" xml:space="preserve">
<style type="text/css">
	.st0{fill:#FFC37F;}
</style>
<g id="surface1">
	<path class="st0" d="M437,75C388.7,26.6,324.4,0,256,0S123.3,26.6,75,75S0,187.6,0,256s26.6,132.7,75,181
		c48.4,48.4,112.6,75,181,75c42.7,0,85.1-10.8,122.6-31.3c4.8-2.6,6.6-8.7,4-13.6s-8.7-6.6-13.6-4C334.4,482,295.4,492,256,492
		C125.9,492,20,386.1,20,256C20,125.9,125.9,20,256,20c130.1,0,236,105.9,236,236c0,63-24.5,122.3-69.1,166.9
		c-3.9,3.9-3.9,10.2,0,14.1c3.9,3.9,10.2,3.9,14.1,0c23.9-23.9,42.6-51.8,55.5-83.1c12.9-31.2,19.5-64.2,19.5-98
		C512,187.6,485.4,123.3,437,75z"/>
	<path class="st0" d="M143.5,73.7c-3.1-4.6-9.3-5.7-13.9-2.6c-24.4,16.7-45,37.7-61.1,62.5s-27.1,52-32.6,81.1
		c-11,58.8,1.5,118.4,35.3,167.8c27.3,39.9,65.9,69.3,110.7,85c0.4,0.2,0.7,0.3,1.1,0.4c10.3,3.5,20.9,6.3,31.7,8.4
		c13.9,2.6,27.9,3.9,41.8,3.9c44.7,0,88.3-13.4,126-39.2c49.4-33.8,82.7-84.8,93.7-143.6s-1.5-118.4-35.3-167.8
		c-27.3-39.9-65.9-69.4-110.8-85c-0.3-0.1-0.7-0.3-1-0.4c-10.3-3.5-20.9-6.3-31.8-8.4c-34-6.4-69.5-4.7-102.8,4.8
		c-5.3,1.5-8.4,7.1-6.9,12.4c1.5,5.3,7,8.4,12.4,6.9c30.3-8.6,62.7-10.1,93.6-4.3c7.7,1.4,15.3,3.3,22.6,5.6v137L133.7,92.7
		c2.3-1.7,4.7-3.4,7.1-5.1C145.4,84.5,146.6,78.3,143.5,73.7z M87.6,371.2c-14.7-21.5-25-45.2-30.6-69.9l118.7-68.5v210.9
		C140.3,428.5,109.9,403.7,87.6,371.2z M256,186.4l60.3,34.8v69.6L256,325.6l-60.3-34.8v-69.6L256,186.4z M218.4,456.5
		c-7.7-1.4-15.3-3.3-22.6-5.6v-137l182.6,105.4c-2.3,1.7-4.7,3.4-7.1,5.1C326.2,455.1,271.9,466.6,218.4,456.5z M456.5,293.6
		c-8.2,43.6-29.8,82.5-61.8,112L276,337.2l182.6-105.4C461.1,252.1,460.4,272.9,456.5,293.6z M424.4,140.8
		c14.7,21.5,25,45.2,30.6,69.9l-118.7,68.5v-63.8c0,0,0,0,0,0v-147C371.7,83.5,402.1,108.3,424.4,140.8z M236,174.8L53.4,280.3
		c-2.4-20.4-1.8-41.2,2.1-61.9c8.2-43.6,29.8-82.5,61.8-112L236,174.8z"/>
	<path class="st0" d="M160.1,74.7c1.5,0,3-0.3,4.4-1c5-2.4,7.1-8.4,4.7-13.3c-2.4-5-8.4-7.1-13.3-4.7c0,0-0.2,0.1-0.2,0.1
		c-4.9,2.4-7,8.4-4.5,13.3C152.8,72.6,156.4,74.7,160.1,74.7z"/>
	<path class="st0" d="M402.3,441.2l-0.2,0.1c-4.3,3.4-5.1,9.7-1.7,14c2,2.5,4.9,3.8,7.9,3.8c2.2,0,4.3-0.7,6.2-2.1l0.2-0.1
		c4.3-3.4,5.1-9.7,1.7-14C412.9,438.5,406.7,437.8,402.3,441.2z"/>
</g>
</svg>
