<?xml version="1.0" encoding="utf-8"?>
<!-- Generator: Adobe Illustrator 22.1.0, SVG Export Plug-In . SVG Version: 6.00 Build 0)  -->
<svg version="1.1" id="Capa_1" xmlns="http://www.w3.org/2000/svg" xmlns:xlink="http://www.w3.org/1999/xlink" x="0px" y="0px"
	 viewBox="0 0 512 512" style="enable-background:new 0 0 512 512;" xml:space="preserve">
<style type="text/css">
	.st0{fill:#FFC37F;}
</style>
<g>
	<g>
		<path class="st0" d="M503.9,17.2c-0.2-2.2-1.2-4.4-2.8-6.1L501,11c-1.7-1.7-3.9-2.7-6.1-2.9C441.7-4,385.9-2.5,333.5,12.5
			c-52.9,15.1-101.4,43.7-140.3,82.6l-6.7,6.7H95.4c-2.7,0-5.2,1.1-7.1,2.9L2.9,190.1c-3.9,3.9-3.9,10.2,0,14.1l40.6,40.6l-9.1,9.1
			c-3.9,3.9-3.9,10.2,0,14.1l34.7,34.7l-27.2,48.2c-2.2,3.9-1.5,8.8,1.6,12l12.6,12.6c-21.2,23.5-36.6,51.7-44.8,82.3L0.3,499.4
			c-0.9,3.4,0.1,7.1,2.6,9.6c1.9,1.9,4.5,2.9,7.1,2.9c0.9,0,1.7-0.1,2.6-0.3l41.6-11.1c30.6-8.2,58.9-23.6,82.3-44.8l12.6,12.6
			c1.9,1.9,4.5,2.9,7.1,2.9c1.7,0,3.4-0.4,4.9-1.3l48.2-27.2l34.8,34.8c2,2,4.5,2.9,7.1,2.9s5.1-1,7.1-2.9l9.1-9.1l40.4,40.4
			c1.9,1.9,4.4,2.9,7.1,2.9s5.2-1.1,7.1-2.9l85.4-85.4c1.9-1.9,2.9-4.4,2.9-7.1v-90.9l6.8-6.8c38.9-38.9,67.4-87.4,82.6-140.3
			C514.5,126.1,516,70.3,503.9,17.2z M24.1,197.2l75.4-75.4h67.1L76,212.4c0,0,0,0,0,0c0,0,0,0,0,0l-18.3,18.3L24.1,197.2z
			 M49,481.2l-24.9,6.6l6.6-24.9c7.3-27.2,20.9-52.4,39.6-73.3l52,52C101.4,460.3,76.2,474,49,481.2z M157.9,448.9l-13.3-13.3
			c-0.2-0.3-0.5-0.6-0.7-0.8c-0.3-0.3-0.5-0.5-0.8-0.7l-65-65c-0.2-0.3-0.5-0.6-0.7-0.8c-0.3-0.3-0.5-0.5-0.8-0.7l-13.4-13.4
			l20.7-36.7l110.8,110.8L157.9,448.9z M390.1,412.3l-75.4,75.4l-33.4-33.4l108.8-108.8L390.1,412.3L390.1,412.3z M402.8,304.6
			L260.1,447.3c0,0,0,0,0,0c0,0,0,0,0,0l-9.1,9.1L218,423.3l0,0L88.6,293.9c0,0,0,0,0,0l-33-33L83,233.6l133.5,133.5
			c2,2,4.5,2.9,7.1,2.9s5.1-1,7.1-2.9c3.9-3.9,3.9-10.2,0-14.1L97.2,219.5l110.2-110.2c73.4-73.4,176.9-104,278.1-82.7
			C506.8,127.7,476.2,231.3,402.8,304.6z"/>
	</g>
</g>
<g>
	<g>
		<path class="st0" d="M372.6,203.3c-5.5,0-10,4.5-10,10l0,0.6c0,5.5,4.4,10,9.9,10.1c0,0,0.1,0,0.1,0c5.5,0,10-4.4,10-9.9l0-0.8
			C382.6,207.8,378.2,203.3,372.6,203.3z"/>
	</g>
</g>
<g>
	<g>
		<path class="st0" d="M367.6,241.9c-4.8-2.8-10.9-1.2-13.7,3.6c-11.4,19.6-32.6,31.8-55.3,31.8c-35.3,0-64-28.7-64-64
			s28.7-64,64-64c19,0,36.9,8.3,49.1,22.9c3.6,4.2,9.9,4.8,14.1,1.2c4.2-3.5,4.8-9.9,1.2-14.1c-16-19.1-39.5-30-64.4-30
			c-46.3,0-84,37.7-84,84s37.7,84,84,84c29.7,0,57.6-16,72.6-41.7C374,250.9,372.4,244.7,367.6,241.9z"/>
	</g>
</g>
<g>
	<g>
		<path class="st0" d="M254.1,376.4c-1.9-1.9-4.4-2.9-7.1-2.9c-2.6,0-5.2,1.1-7.1,2.9c-1.9,1.9-2.9,4.4-2.9,7.1
			c0,2.6,1.1,5.2,2.9,7.1c1.9,1.9,4.4,2.9,7.1,2.9c2.6,0,5.2-1.1,7.1-2.9c1.9-1.9,2.9-4.4,2.9-7.1S256,378.3,254.1,376.4z"/>
	</g>
</g>
</svg>
