<?xml version="1.0" encoding="iso-8859-1"?>
<!-- Generator: Adobe Illustrator 19.0.0, SVG Export Plug-In . SVG Version: 6.00 Build 0)  -->
<svg version="1.1" id="Capa_1" xmlns="http://www.w3.org/2000/svg" xmlns:xlink="http://www.w3.org/1999/xlink" x="0px" y="0px"
	 viewBox="0 0 512 512" style="enable-background:new 0 0 512 512;" xml:space="preserve">
<g>
	<rect x="9.995" y="10.122" style="fill:#F5C86E;" width="127.937" height="127.937"/>
	<rect x="192.035" y="10.122" style="fill:#F5C86E;" width="127.937" height="127.937"/>
	<rect x="374.064" y="10.122" style="fill:#F5C86E;" width="127.937" height="127.937"/>
	<rect x="9.995" y="192.035" style="fill:#F5C86E;" width="127.937" height="127.937"/>
	<rect x="192.035" y="192.035" style="fill:#F5C86E;" width="127.937" height="127.937"/>
	<rect x="374.064" y="192.035" style="fill:#F5C86E;" width="127.937" height="127.937"/>
	<rect x="9.995" y="373.944" style="fill:#F5C86E;" width="127.937" height="127.937"/>
	<rect x="192.035" y="373.944" style="fill:#F5C86E;" width="127.937" height="127.937"/>
	<rect x="374.064" y="373.944" style="fill:#F5C86E;" width="127.937" height="127.937"/>
</g>
<path d="M319.968,148.054H192.032c-5.52,0-9.995-4.476-9.995-9.995V10.122c0-5.519,4.475-9.995,9.995-9.995h127.937
	c5.52,0,9.995,4.476,9.995,9.995v127.937C329.963,143.578,325.488,148.054,319.968,148.054z M202.027,128.063h107.946V20.117
	H202.027L202.027,128.063L202.027,128.063z"/>
<path d="M502.005,148.054H374.068c-5.52,0-9.995-4.476-9.995-9.995V10.122c0-5.519,4.475-9.995,9.995-9.995h127.937
	c5.52,0,9.995,4.476,9.995,9.995v127.937C512,143.578,507.525,148.054,502.005,148.054z M384.063,128.063H492.01V20.117H384.063
	V128.063z"/>
<path d="M137.932,329.963H9.995c-5.52,0-9.995-4.476-9.995-9.995V192.032c0-5.519,4.475-9.995,9.995-9.995h127.937
	c5.52,0,9.995,4.476,9.995,9.995v127.937C147.927,325.487,143.452,329.963,137.932,329.963z M19.99,309.973h107.946V202.027H19.99
	V309.973z"/>
<path d="M319.968,329.963H192.032c-5.52,0-9.995-4.476-9.995-9.995V192.032c0-5.519,4.475-9.995,9.995-9.995h127.937
	c5.52,0,9.995,4.476,9.995,9.995v127.937C329.963,325.487,325.488,329.963,319.968,329.963z M202.027,309.973h107.946V202.027
	H202.027L202.027,309.973L202.027,309.973z"/>
<path d="M502.005,329.963H374.068c-5.52,0-9.995-4.476-9.995-9.995V192.032c0-5.519,4.475-9.995,9.995-9.995h127.937
	c5.52,0,9.995,4.476,9.995,9.995v127.937C512,325.487,507.525,329.963,502.005,329.963z M384.063,309.973H492.01V202.027H384.063
	V309.973z"/>
<path d="M137.932,511.873H9.995c-5.52,0-9.995-4.476-9.995-9.995V373.941c0-5.519,4.475-9.995,9.995-9.995h127.937
	c5.52,0,9.995,4.476,9.995,9.995v127.937C147.927,507.397,143.452,511.873,137.932,511.873z M19.99,491.883h107.946V383.937H19.99
	V491.883z"/>
<path d="M319.968,511.873H192.032c-5.52,0-9.995-4.476-9.995-9.995V373.941c0-5.519,4.475-9.995,9.995-9.995h127.937
	c5.52,0,9.995,4.476,9.995,9.995v127.937C329.963,507.397,325.488,511.873,319.968,511.873z M202.027,491.883h107.946V383.937
	H202.027L202.027,491.883L202.027,491.883z"/>
<path d="M441.451,383.937c-2.639,0-5.207-1.069-7.066-2.93c-1.869-1.858-2.929-4.437-2.929-7.065c0-2.629,1.059-5.207,2.929-7.066
	c1.859-1.859,4.428-2.929,7.066-2.929c2.629,0,5.207,1.068,7.066,2.929c1.859,1.86,2.929,4.438,2.929,7.066
	c0,2.629-1.069,5.207-2.929,7.065C446.658,382.867,444.08,383.937,441.451,383.937z"/>
<path d="M502.005,511.873H374.068c-5.52,0-9.995-4.476-9.995-9.995V373.941c0-5.519,4.475-9.995,9.995-9.995h23.401
	c5.52,0,9.995,4.476,9.995,9.995c0,5.519-4.475,9.995-9.995,9.995h-13.406v107.946H492.01V383.937h-5.251
	c-5.52,0-9.995-4.476-9.995-9.995c0-5.519,4.475-9.995,9.995-9.995h15.246c5.52,0,9.995,4.476,9.995,9.995v127.937
	C512,507.397,507.525,511.873,502.005,511.873z"/>
<path d="M70.555,148.054c-2.629,0-5.207-1.069-7.066-2.93c-1.859-1.858-2.929-4.437-2.929-7.066c0-2.629,1.069-5.207,2.929-7.066
	c1.859-1.859,4.428-2.929,7.066-2.929c2.629,0,5.207,1.068,7.066,2.929c1.859,1.859,2.929,4.438,2.929,7.066
	c0,2.629-1.069,5.207-2.929,7.066C75.762,146.984,73.184,148.054,70.555,148.054z"/>
<path d="M137.932,148.054H114.53c-5.52,0-9.995-4.476-9.995-9.995c0-5.519,4.475-9.995,9.995-9.995h13.406V20.117H19.99v107.946
	h5.251c5.52,0,9.995,4.476,9.995,9.995c0,5.519-4.475,9.995-9.995,9.995H9.995c-5.52,0-9.995-4.476-9.995-9.995V10.122
	c0-5.519,4.475-9.995,9.995-9.995h127.937c5.52,0,9.995,4.476,9.995,9.995v127.937C147.927,143.578,143.452,148.054,137.932,148.054
	z"/>
<g>
</g>
<g>
</g>
<g>
</g>
<g>
</g>
<g>
</g>
<g>
</g>
<g>
</g>
<g>
</g>
<g>
</g>
<g>
</g>
<g>
</g>
<g>
</g>
<g>
</g>
<g>
</g>
<g>
</g>
</svg>
