<svg height="512pt" viewBox="0 0 512 512" width="512pt" xmlns="http://www.w3.org/2000/svg"><path d="m502 502h-410c-45.285156 0-82-36.714844-82-82s36.714844-82 82-82h410zm0 0" fill="#36d28f"/><path d="m502 502h-173.300781c-45.285157 0-82-36.714844-82-82s36.714843-82 82-82h173.300781zm0 0" fill="#edf2fa"/><path d="m502 338h-410c-45.285156 0-82-36.714844-82-82s36.714844-82 82-82h410zm0 0" fill="#6a80ff"/><path d="m502 338h-173.300781c-45.285157 0-82-36.714844-82-82s36.714843-82 82-82h173.300781zm0 0" fill="#fff"/><path d="m502 174h-410c-45.285156 0-82-36.714844-82-82s36.714844-82 82-82h410zm0 0" fill="#ff5d5d"/><path d="m502 174h-173.300781c-45.285157 0-82-36.714844-82-82s36.714843-82 82-82h173.300781zm0 0" fill="#edf2fa"/><path d="m502 0h-410c-50.730469 0-92 41.269531-92 92 0 35.730469 20.476562 66.769531 50.3125 82-29.835938 15.230469-50.3125 46.269531-50.3125 82s20.476562 66.769531 50.3125 82c-29.835938 15.230469-50.3125 46.269531-50.3125 82 0 50.730469 41.269531 92 92 92h410c5.523438 0 10-4.476562 10-10v-492c0-5.523438-4.476562-10-10-10zm-245.300781 256c0-39.699219 32.300781-72 72-72h163.300781v34.792969h-137c-5.523438 0-10 4.476562-10 10 0 5.523437 4.476562 10 10 10h137v34.667969h-174.769531c-5.523438 0-10 4.476562-10 10 0 5.523437 4.476562 10 10 10h174.769531v34.539062h-163.300781c-39.699219 0-72-32.300781-72-72zm235.300781-236v34.667969h-175c-5.523438 0-10 4.476562-10 10 0 5.523437 4.476562 10 10 10h175v34.667969h-175c-5.523438 0-10 4.476562-10 10 0 5.519531 4.476562 10 10 10h175v34.664062h-163.300781c-39.699219 0-72-32.300781-72-72s32.300781-72 72-72zm-472 72c0-39.699219 32.300781-72 72-72h179.496094c-21.1875 16.867188-34.796875 42.875-34.796875 72s13.609375 55.132812 34.796875 72h-179.496094c-39.699219 0-72-32.300781-72-72zm0 164c0-39.699219 32.300781-72 72-72h179.496094c-21.1875 16.867188-34.796875 42.875-34.796875 72s13.609375 55.132812 34.796875 72h-179.496094c-39.699219 0-72-32.300781-72-72zm72 236c-39.699219 0-72-32.300781-72-72s32.300781-72 72-72h179.496094c-21.1875 16.867188-34.796875 42.875-34.796875 72s13.609375 55.132812 34.796875 72zm236.699219 0c-39.699219 0-72-32.300781-72-72s32.300781-72 72-72h163.300781v34.921875h-174.769531c-5.523438 0-10 4.476563-10 10 0 5.519531 4.476562 10 10 10h174.769531v34.664063h-130c-5.523438 0-10 4.476562-10 10 0 5.523437 4.476562 10 10 10h130v34.414062zm0 0"/><path d="m320.410156 437.589844c-2.628906 0-5.210937 1.070312-7.070312 2.929687s-2.929688 4.429688-2.929688 7.070313c0 2.628906 1.070313 5.210937 2.929688 7.070312s4.441406 2.929688 7.070312 2.929688 5.210938-1.070313 7.070313-2.929688c1.871093-1.859375 2.929687-4.441406 2.929687-7.070312s-1.058594-5.210938-2.929687-7.070313c-1.859375-1.859375-4.429688-2.929687-7.070313-2.929687zm0 0"/><path d="m316.769531 238.789062c2.628907 0 5.210938-1.058593 7.070313-2.929687 1.859375-1.859375 2.929687-4.4375 2.929687-7.070313 0-2.628906-1.070312-5.199218-2.929687-7.070312-1.859375-1.859375-4.441406-2.929688-7.070313-2.929688-2.628906 0-5.210937 1.070313-7.070312 2.929688s-2.929688 4.441406-2.929688 7.070312c0 2.640626 1.070313 5.210938 2.929688 7.070313 1.859375 1.871094 4.441406 2.929687 7.070312 2.929687zm0 0"/></svg>