<svg height="512pt" viewBox="0 0 512 512" width="512pt" xmlns="http://www.w3.org/2000/svg"><path d="m436 338h-426v-132h426c36.449219 0 66 29.550781 66 66s-29.550781 66-66 66zm0 0" fill="#ff5d5d"/><path d="m244 338h-234v-132h234c36.449219 0 66 29.550781 66 66s-29.550781 66-66 66zm0 0" fill="#fff"/><path d="m502 502h-410c-45.285156 0-82-36.714844-82-82s36.714844-82 82-82h410zm0 0" fill="#36d28f"/><path d="m427 206h-390v-96h390c26.511719 0 48 21.488281 48 48s-21.488281 48-48 48zm0 0" fill="#6a80ff"/><path d="m235 206h-198v-96h198c26.511719 0 48 21.488281 48 48s-21.488281 48-48 48zm0 0" fill="#edf2fa"/><path d="m136 10h267v100h-267c-27.613281 0-50-22.386719-50-50s22.386719-50 50-50zm0 0" fill="#ff5d5d"/><path d="m279 10h124v100h-124c-27.613281 0-50-22.386719-50-50s22.386719-50 50-50zm0 0" fill="#fff"/><path d="m502 502h-173.300781c-45.285157 0-82-36.714844-82-82s36.714843-82 82-82h173.300781zm0 0" fill="#edf2fa"/><path d="m450 421.199219-32-31.597657-32 31.597657v-83.199219h64zm0 0" fill="#36d28f"/><path d="m502 328h-14.683594c15.160156-13.902344 24.683594-33.859375 24.683594-56 0-31.640625-19.441406-58.816406-47-70.238281 12.238281-10.640625 20-26.308594 20-43.761719 0-31.980469-26.019531-58-58-58h-14v-90c0-5.523438-4.476562-10-10-10h-267c-33.085938 0-60 26.914062-60 60 0 15.355469 5.804688 29.375 15.328125 40h-54.328125c-5.523438 0-10 4.476562-10 10v86h-17c-5.523438 0-10 4.476562-10 10v132c0 5.523438 4.476562 10 10 10h24.796875c-21.1875 16.867188-34.796875 42.875-34.796875 72 0 50.730469 41.269531 92 92 92h410c5.523438 0 10-4.476562 10-10v-164c0-5.523438-4.476562-10-10-10zm-62 20v49.269531l-14.972656-14.785156c-1.949219-1.921875-4.488282-2.882813-7.027344-2.882813s-5.078125.960938-7.027344 2.882813l-14.972656 14.785156v-49.269531zm-4-132c30.878906 0 56 25.121094 56 56s-25.121094 56-56 56h-140.683594c15.160156-13.902344 24.683594-33.859375 24.683594-56s-9.523438-42.097656-24.679688-56zm29-58c0 20.953125-17.046875 38-38 38h-148.238281c8.855469-10.1875 14.238281-23.472656 14.238281-38s-5.382812-27.8125-14.238281-38h148.238281c20.953125 0 38 17.046875 38 38zm-72-138v80h-114c-22.054688 0-40-17.945312-40-40s17.945312-40 40-40zm-297 40c0-22.054688 17.945312-40 40-40h98.328125c-9.523437 10.625-15.328125 24.644531-15.328125 40s5.804688 29.375 15.328125 40h-98.328125c-22.054688 0-40-17.945312-40-40zm-49 60h188c20.953125 0 38 17.046875 38 38s-17.046875 38-38 38h-188zm-27 208v-24h180c5.523438 0 10-4.476562 10-10s-4.476562-10-10-10h-180v-24h220c5.523438 0 10-4.476562 10-10s-4.476562-10-10-10h-220v-24h224c30.878906 0 56 25.121094 56 56s-25.121094 56-56 56zm72 164c-22.222656 0-42.121094-10.125-55.339844-26h109.339844c5.523438 0 10-4.476562 10-10s-4.476562-10-10-10h-121.121094c-3.140625-8.070312-4.878906-16.832031-4.878906-26 0-39.699219 32.300781-72 72-72h179.5c-21.191406 16.867188-34.796875 42.875-34.796875 72s13.605469 55.132812 34.796875 72zm400 0h-163.300781c-39.699219 0-72-32.300781-72-72s32.300781-72 72-72h47.300781v73.199219c0 4.035156 2.421875 7.671875 6.144531 9.226562 3.71875 1.558594 8.011719.726563 10.882813-2.109375l24.972656-24.664062 24.972656 24.664062c1.910156 1.882813 4.449219 2.882813 7.03125 2.882813 1.296875 0 2.605469-.253907 3.851563-.773438 3.722656-1.554687 6.144531-5.191406 6.144531-9.226562v-73.199219h32zm0 0"/><path d="m251.828125 294c0-2.628906-1.066406-5.210938-2.929687-7.070312-1.859376-1.859376-4.4375-2.929688-7.070313-2.929688-2.628906 0-5.207031 1.070312-7.066406 2.929688-1.863281 1.859374-2.933594 4.441406-2.933594 7.070312s1.070313 5.210938 2.933594 7.070312c1.859375 1.859376 4.4375 2.929688 7.066406 2.929688 2.632813 0 5.210937-1.070312 7.070313-2.929688 1.863281-1.859374 2.929687-4.441406 2.929687-7.070312zm0 0"/><path d="m187.671875 446c-2.640625 0-5.210937 1.070312-7.070313 2.929688-1.871093 1.859374-2.929687 4.441406-2.929687 7.070312s1.058594 5.210938 2.929687 7.070312c1.859376 1.859376 4.429688 2.929688 7.070313 2.929688 2.628906 0 5.207031-1.070312 7.066406-2.929688 1.863281-1.859374 2.933594-4.441406 2.933594-7.070312s-1.070313-5.210938-2.933594-7.070312c-1.859375-1.859376-4.4375-2.929688-7.066406-2.929688zm0 0"/></svg>