<svg height="512pt" viewBox="0 0 512 512" width="512pt" xmlns="http://www.w3.org/2000/svg"><path d="m374 430h-328c-19.882812 0-36 16.117188-36 36s16.117188 36 36 36h328c11.046875 0 20-8.953125 20-20v-72c0 11.046875-8.953125 20-20 20zm0 0" fill="#fff"/><path d="m10 466v-420c0-19.882812 16.117188-36 36-36h328c11.046875 0 20 8.953125 20 20v380c0 11.046875-8.953125 20-20 20h-328c-19.882812 0-36 16.117188-36 36zm0 0" fill="#6a80ff"/><path d="m128.726562 372h146.953126c0-25.347656 20.550781-45.898438 45.898437-45.898438v-212.203124c-25.347656 0-45.898437-20.550782-45.898437-45.898438h-146.953126c0 25.347656-20.550781 45.898438-45.898437 45.898438v212.203124c25.347656 0 45.898437 20.550782 45.898437 45.898438zm0 0" fill="#fff"/><path d="m393.449219 308.222656 61.875 61.875c10.675781 10.675782 27.988281 10.675782 38.667969 0 10.679687-10.679687 10.679687-27.992187 0-38.667968l-61.875-61.875zm0 0" fill="#ff5d5d"/><path d="m448.003906 205.140625c0 65.703125-53.261718 118.964844-118.964844 118.964844-65.703124 0-118.964843-53.261719-118.964843-118.964844s53.261719-118.964844 118.964843-118.964844c65.703126 0 118.964844 53.261719 118.964844 118.964844zm0 0" fill="#36d28f"/><path d="m408.039062 205.140625c0 43.628906-35.371093 79-79 79-43.628906 0-79-35.371094-79-79 0-43.632813 35.371094-79 79-79 43.628907 0 79 35.367187 79 79zm0 0" fill="#fff"/><path d="m82.828125 224.671875c2.632813 0 5.199219-1.070313 7.070313-2.933594 1.859374-1.859375 2.929687-4.4375 2.929687-7.066406 0-2.640625-1.066406-5.210937-2.929687-7.070313-1.871094-1.871093-4.4375-2.929687-7.070313-2.929687-2.628906 0-5.207031 1.058594-7.066406 2.929687-1.871094 1.859376-2.933594 4.429688-2.933594 7.070313 0 2.628906 1.0625 5.207031 2.933594 7.066406 1.859375 1.863281 4.4375 2.933594 7.066406 2.933594zm0 0"/><path d="m501.0625 324.355469-58.351562-58.351563c9.753906-18.140625 15.292968-38.867187 15.292968-60.863281 0-43.242187-21.394531-81.582031-54.152344-104.992187.089844-.535157.148438-1.085938.148438-1.648438v-68.5c0-16.542969-13.457031-30-30-30h-328c-25.363281 0-46 20.636719-46 46v420c0 25.363281 20.636719 46 46 46h328c16.542969 0 30-13.457031 30-30v-149.082031l44.253906 44.25c7.050782 7.054687 16.429688 10.9375 26.402344 10.9375 9.976562 0 19.355469-3.886719 26.40625-10.9375 7.050781-7.054688 10.9375-16.433594 10.9375-26.40625 0-9.972657-3.882812-19.351563-10.9375-26.40625zm-63.058594-119.214844c0 60.082031-48.882812 108.964844-108.964844 108.964844-60.082031 0-108.964843-48.882813-108.964843-108.964844s48.882812-108.964844 108.964843-108.964844c60.082032 0 108.964844 48.878907 108.964844 108.964844zm-392.003906-185.140625h328c5.515625 0 10 4.484375 10 10v58.488281c-16.683594-7.890625-35.3125-12.3125-54.960938-12.3125-14.050781 0-27.578124 2.265625-40.25 6.4375-2.035156-4.570312-3.109374-9.53125-3.109374-14.613281 0-2.652344-1.054688-5.195312-2.929688-7.070312-1.878906-1.875-4.421875-2.929688-7.070312-2.929688h-146.953126c-5.523437 0-10 4.476562-10 10 0 19.796875-16.105468 35.898438-35.898437 35.898438-5.523437 0-10 4.476562-10 10v59.273437c0 5.523437 4.476563 10 10 10s10-4.476563 10-10v-50.167969c22.820313-4.140625 40.863281-22.183594 45.003906-45.003906h128.742188c.769531 4.246094 2.039062 8.375 3.761719 12.328125-41.679688 21.394531-70.261719 64.828125-70.261719 114.8125 0 56.75 36.847656 105.054687 87.871093 122.25-10.980468 8.296875-18.820312 20.542969-21.371093 34.609375h-128.742188c-4.140625-22.820312-22.183593-40.863281-45.003906-45.003906v-60.996094c0-5.523438-4.480469-10-10-10-5.523437 0-10 4.476562-10 10v70.101562c0 5.523438 4.476563 10 10 10 19.792969 0 35.898437 16.105469 35.898437 35.898438 0 5.523438 4.476563 10 10 10h146.953126c5.519531 0 10-4.476562 10-10 0-19.796875 16.101562-35.898438 35.894531-35.898438 2.257812 0 4.332031-.753906 6.003906-2.015624.488281.003906.972656.019531 1.457031.019531 19.648438 0 38.28125-4.421875 54.960938-12.316407v88.210938c0 5.515625-4.484375 10-10 10h-327.996094c-9.644531 0-18.597656 2.988281-26 8.078125v-382.078125c0-14.335938 11.664062-26 26-26zm328 472h-328c-14.335938 0-26-11.664062-26-26s11.664062-26 26-26h328c3.507812 0 6.871094-.609375 10-1.71875v43.71875c0 5.515625-4.484375 10-10 10zm112.921875-128.976562c-6.765625 6.761718-17.765625 6.761718-24.527344 0l-55.300781-55.296876c9.230469-7.042968 17.488281-15.296874 24.527344-24.527343l55.300781 55.296875c6.761719 6.765625 6.761719 17.769531 0 24.527344zm0 0"/><path d="m266.105469 142.207031c-16.808594 16.808594-26.066407 39.160157-26.066407 62.933594s9.257813 46.121094 26.066407 62.933594c16.8125 16.808593 39.160156 26.066406 62.933593 26.066406 23.773438 0 46.121094-9.257813 62.933594-26.066406 16.808594-16.8125 26.066406-39.160157 26.066406-62.933594s-9.257812-46.125-26.066406-62.933594c-16.8125-16.808593-39.160156-26.066406-62.933594-26.066406-23.773437 0-46.121093 9.257813-62.933593 26.066406zm131.933593 62.933594c0 18.429687-7.179687 35.757813-20.210937 48.789063s-30.359375 20.210937-48.789063 20.210937c-18.429687 0-35.757812-7.179687-48.789062-20.210937s-20.210938-30.359376-20.210938-48.789063 7.179688-35.757813 20.210938-48.792969c13.03125-13.03125 30.359375-20.207031 48.789062-20.207031 18.429688 0 35.757813 7.175781 48.789063 20.207031 13.03125 13.035156 20.210937 30.363282 20.210937 48.792969zm0 0"/></svg>