<svg height="682.66669pt" viewBox="-21 -21 682.66669 682.66669" width="682.66669pt" xmlns="http://www.w3.org/2000/svg"><path d="m103.535156 280.839844c3.292969 0 6.5-1.339844 8.839844-3.667969 2.320312-2.324219 3.660156-5.546875 3.660156-8.832031 0-3.300782-1.332031-6.511719-3.660156-8.839844-2.339844-2.335938-5.546875-3.660156-8.839844-3.660156-3.285156 0-6.507812 1.324218-8.832031 3.660156-2.339844 2.328125-3.667969 5.539062-3.667969 8.839844 0 3.285156 1.328125 6.507812 3.667969 8.832031 2.324219 2.328125 5.546875 3.667969 8.832031 3.667969zm0 0"/><path d="m626.328125 405.445312-72.9375-72.941406c12.191406-22.675781 19.113281-48.582031 19.113281-76.078125 0-54.050781-26.742187-101.976562-67.691406-131.238281.113281-.671875.1875-1.359375.1875-2.0625v-85.625c0-20.679688-16.820312-37.5-37.5-37.5h-410c-31.703125 0-57.5 25.796875-57.5 57.5v525c0 31.703125 25.796875 57.5 57.5 57.5h410c20.679688 0 37.5-16.820312 37.5-37.5v-186.351562l55.316406 55.3125c8.816406 8.816406 20.539063 13.671874 33.003906 13.671874 12.46875 0 24.195313-4.859374 33.007813-13.671874 8.8125-8.820313 13.671875-20.542969 13.671875-33.007813 0-12.46875-4.851562-24.191406-13.671875-33.007813zm-78.824219-149.019531c0 75.101563-61.101562 136.207031-136.207031 136.207031-75.101563 0-136.203125-61.105468-136.203125-136.207031 0-75.101562 61.101562-136.207031 136.203125-136.207031 75.105469 0 136.207031 61.101562 136.207031 136.207031zm-490.003906-231.425781h410c6.894531 0 12.5 5.605469 12.5 12.5v73.109375c-20.855469-9.863281-44.140625-15.390625-68.703125-15.390625-17.5625 0-34.46875 2.832031-50.3125 8.046875-2.542969-5.710937-3.882813-11.914063-3.882813-18.265625 0-3.316406-1.320312-6.492188-3.664062-8.835938-2.347656-2.34375-5.527344-3.664062-8.835938-3.664062h-183.695312c-6.902344 0-12.5 5.59375-12.5 12.5 0 24.746094-20.128906 44.875-44.871094 44.875-6.902344 0-12.5 5.59375-12.5 12.5v74.089844c0 6.902344 5.597656 12.5 12.5 12.5s12.5-5.597656 12.5-12.5v-62.710938c28.527344-5.175781 51.078125-27.730468 56.253906-56.253906h160.929688c.960938 5.308594 2.546875 10.46875 4.703125 15.410156-52.101563 26.742188-87.828125 81.035156-87.828125 143.515625 0 70.9375 46.058594 131.316407 109.835938 152.8125-13.722657 10.371094-23.523438 25.679688-26.710938 43.261719h-160.929688c-5.175781-28.523438-27.726562-51.078125-56.253906-56.253906v-76.246094c0-6.90625-5.601562-12.5-12.5-12.5-6.902344 0-12.5 5.59375-12.5 12.5v87.625c0 6.90625 5.597656 12.5 12.5 12.5 24.742188 0 44.871094 20.132812 44.871094 44.875 0 6.90625 5.597656 12.5 12.5 12.5h183.695312c6.898438 0 12.5-5.59375 12.5-12.5 0-24.746094 20.125-44.875 44.867188-44.875 2.820312 0 5.414062-.941406 7.503906-2.515625.609375.003906 1.214844.023437 1.820313.023437 24.5625 0 47.851562-5.527343 68.703125-15.398437v110.265625c0 6.894531-5.605469 12.5-12.5 12.5h-409.996094c-12.054688 0-23.246094 3.734375-32.5 10.097656v-477.597656c0-17.921875 14.578125-32.5 32.5-32.5zm410 590h-410c-17.921875 0-32.5-14.578125-32.5-32.5s14.578125-32.5 32.5-32.5h410c4.382812 0 8.589844-.761719 12.5-2.148438v54.648438c0 6.894531-5.605469 12.5-12.5 12.5zm141.152344-161.21875c-8.457032 8.449219-22.207032 8.449219-30.660156 0l-69.125-69.125c11.539062-8.800781 21.859374-19.117188 30.660156-30.65625l69.125 69.121094c8.453125 8.457031 8.453125 22.210937 0 30.660156zm0 0"/><path d="m332.632812 177.757812c-21.011718 21.011719-32.585937 48.953126-32.585937 78.667969 0 29.714844 11.574219 57.652344 32.585937 78.667969 21.015626 21.007812 48.949219 32.582031 78.664063 32.582031 29.71875 0 57.652344-11.574219 78.667969-32.582031 21.011718-21.015625 32.582031-48.953125 32.582031-78.667969 0-29.714843-11.570313-57.65625-32.582031-78.667969-21.015625-21.007812-48.949219-32.582031-78.667969-32.582031-29.714844 0-57.648437 11.574219-78.664063 32.582031zm164.914063 78.667969c0 23.035157-8.972656 44.699219-25.261719 60.988281-16.289062 16.289063-37.949218 25.261719-60.988281 25.261719-23.035156 0-44.695313-8.972656-60.984375-25.261719-16.289062-16.289062-25.265625-37.953124-25.265625-60.988281 0-23.035156 8.976563-44.699219 25.265625-60.992187 16.289062-16.289063 37.949219-25.257813 60.984375-25.257813 23.039063 0 44.699219 8.96875 60.988281 25.257813 16.289063 16.292968 25.261719 37.957031 25.261719 60.992187zm0 0"/></svg>