<svg xmlns="http://www.w3.org/2000/svg" height="512.00102pt" version="1.1" viewBox="0 0 512.00102 512.00102" width="512.00102pt">
<g id="surface1">
<path d="M 256 502 C 391.492188 502 502 391.492188 502 256 C 502 120.507812 391.492188 10 256 10 C 120.507812 10 10 120.507812 10 256 C 10 391.492188 120.507812 502 256 502 Z M 256 502 " style=" stroke:none;fill-rule:evenodd;fill:rgb(30.196078%,73.72549%,83.921569%);fill-opacity:1;" />
<path d="M 256 470 C 373.867188 470 470 373.867188 470 256 C 470 138.132812 373.867188 42 256 42 C 138.132812 42 42 138.132812 42 256 C 42 373.867188 138.132812 470 256 470 Z M 256 470 " style=" stroke:none;fill-rule:evenodd;fill:rgb(67.058824%,78.039216%,100%);fill-opacity:1;" />
<path d="M 326.285156 215.421875 L 291.144531 195.132812 L 256 174.839844 L 220.859375 195.132812 L 185.714844 215.421875 L 185.714844 296.578125 L 220.859375 316.871094 L 256 337.160156 L 291.144531 316.871094 L 326.285156 296.578125 Z M 326.285156 215.421875 " style=" stroke:none;fill-rule:evenodd;fill:rgb(26.27451%,37.647059%,60.784314%);fill-opacity:1;" />
<path d="M 437.019531 74.980469 C 388.667969 26.628906 324.378906 0 256 0 C 187.621094 0 123.332031 26.628906 74.980469 74.980469 C 26.628906 123.332031 0 187.621094 0 256 C 0 324.378906 26.628906 388.667969 74.980469 437.019531 C 123.332031 485.375 187.621094 512 256 512 C 298.707031 512 341.09375 501.191406 378.585938 480.742188 C 383.433594 478.097656 385.21875 472.023438 382.574219 467.175781 C 379.929688 462.328125 373.855469 460.542969 369.007812 463.1875 C 334.445312 482.039062 295.371094 492.003906 256 492.003906 C 125.871094 492 20 386.132812 20 256 C 20 125.871094 125.871094 20 256 20 C 386.132812 20 492 125.871094 492 256 C 492 319.039062 467.453125 378.304688 422.878906 422.878906 C 418.972656 426.78125 418.972656 433.113281 422.878906 437.019531 C 426.78125 440.925781 433.113281 440.925781 437.019531 437.019531 C 460.914062 413.128906 479.582031 385.183594 492.515625 353.96875 C 505.445312 322.75 512 289.789062 512 256 C 512 187.621094 485.371094 123.332031 437.019531 74.980469 Z M 437.019531 74.980469 " style=" stroke:none;fill-rule:nonzero;fill:rgb(0%,0%,0%);fill-opacity:1;" />
<path d="M 143.453125 73.710938 C 140.332031 69.152344 134.109375 67.984375 129.554688 71.101562 C 105.148438 87.792969 84.582031 108.808594 68.421875 133.566406 C 52.261719 158.324219 41.300781 185.613281 35.847656 214.671875 C 24.804688 273.476562 37.328125 333.0625 71.101562 382.449219 C 98.410156 422.378906 136.972656 451.773438 181.816406 467.402344 C 182.175781 467.554688 182.550781 467.679688 182.933594 467.792969 C 193.207031 471.3125 203.804688 474.117188 214.671875 476.15625 C 228.609375 478.773438 242.589844 480.066406 256.472656 480.066406 C 301.148438 480.066406 344.769531 466.667969 382.449219 440.898438 C 431.835938 407.125 465.117188 356.136719 476.15625 297.332031 C 487.195312 238.527344 474.675781 178.941406 440.898438 129.554688 C 413.578125 89.605469 374.992188 60.199219 330.121094 44.578125 C 329.785156 44.4375 329.433594 44.320312 329.082031 44.214844 C 318.804688 40.695312 308.203125 37.890625 297.332031 35.847656 C 263.335938 29.464844 227.789062 31.109375 194.527344 40.601562 C 189.21875 42.117188 186.140625 47.652344 187.65625 52.960938 C 189.171875 58.273438 194.703125 61.347656 200.015625 59.832031 C 230.308594 51.1875 262.679688 49.691406 293.640625 55.503906 C 301.347656 56.949219 308.898438 58.832031 316.285156 61.097656 L 316.285156 198.101562 L 133.738281 92.707031 C 136.066406 90.96875 138.429688 89.261719 140.839844 87.613281 C 145.402344 84.492188 146.570312 78.269531 143.453125 73.710938 Z M 87.613281 371.160156 C 72.890625 349.628906 62.613281 325.972656 56.992188 301.285156 L 175.714844 232.742188 L 175.714844 443.605469 C 140.308594 428.539062 109.859375 403.6875 87.613281 371.160156 Z M 256 186.386719 L 316.285156 221.195312 L 316.285156 290.804688 L 256 325.613281 L 195.714844 290.804688 L 195.714844 221.195312 Z M 218.363281 456.5 C 210.65625 455.050781 203.101562 453.171875 195.714844 450.902344 L 195.714844 313.898438 L 378.265625 419.292969 C 375.9375 421.035156 373.574219 422.738281 371.160156 424.390625 C 326.179688 455.148438 271.917969 466.550781 218.363281 456.5 Z M 456.5 293.640625 C 448.3125 337.246094 426.699219 376.128906 394.671875 405.675781 L 276 337.160156 L 458.636719 231.714844 C 461.054688 252.078125 460.390625 272.910156 456.5 293.640625 Z M 424.390625 140.839844 C 439.113281 162.367188 449.386719 186.027344 455.011719 210.710938 L 336.285156 279.257812 L 336.285156 68.394531 C 371.695312 83.460938 402.144531 108.3125 424.390625 140.839844 Z M 236 174.839844 L 53.363281 280.285156 C 50.949219 259.921875 51.609375 239.089844 55.503906 218.359375 C 63.6875 174.753906 85.304688 135.875 117.328125 106.328125 Z M 236 174.839844 " style=" stroke:none;fill-rule:nonzero;fill:rgb(0%,0%,0%);fill-opacity:1;" />
<path d="M 160.070312 74.707031 C 161.546875 74.707031 163.042969 74.378906 164.457031 73.691406 C 169.4375 71.300781 171.53125 65.324219 169.140625 60.347656 C 166.746094 55.367188 160.773438 53.273438 155.796875 55.664062 C 155.753906 55.683594 155.644531 55.738281 155.597656 55.761719 C 150.660156 58.191406 148.644531 64.140625 151.058594 69.09375 C 152.785156 72.644531 156.359375 74.707031 160.070312 74.707031 Z M 160.070312 74.707031 " style=" stroke:none;fill-rule:nonzero;fill:rgb(0%,0%,0%);fill-opacity:1;" />
<path d="M 402.3125 441.175781 L 402.152344 441.300781 C 397.8125 444.714844 397.0625 451.003906 400.480469 455.34375 C 402.453125 457.847656 405.382812 459.15625 408.34375 459.15625 C 410.507812 459.15625 412.6875 458.457031 414.523438 457.015625 L 414.679688 456.890625 C 419.019531 453.476562 419.769531 447.1875 416.355469 442.847656 C 412.9375 438.507812 406.652344 437.757812 402.3125 441.175781 Z M 402.3125 441.175781 " style=" stroke:none;fill-rule:nonzero;fill:rgb(0%,0%,0%);fill-opacity:1;" />
</g>
</svg>