<svg height="512pt" viewBox="0 0 512 512" width="512pt" xmlns="http://www.w3.org/2000/svg"><path d="m396.820312 115.179688c-55.339843-4.78125-104.820312-30.050782-140.820312-68.179688-36 38.128906-85.480469 63.390625-140.820312 68.179688-.050782 0-.109376.011718-.160157.011718-4.628906 55.339844-29.898437 104.820313-68.019531 140.808594 38.128906 36 63.398438 85.480469 68.179688 140.820312 55.339843 4.78125 104.820312 30.050782 140.820312 68.179688 31.480469-33.339844 73.269531-56.851562 120.269531-65.378906 6.75-1.230469 13.601563-2.140625 20.550781-2.730469 0-.019531 0-.039063.007813-.0625 4.773437-55.347656 30.042969-104.828125 68.171875-140.828125-38.128906-36-63.398438-85.480469-68.179688-140.820312zm0 0" fill="#deecf1"/><path d="m296 376c-5.519531 0-10 4.480469-10 10s4.480469 10 10 10 10-4.480469 10-10-4.480469-10-10-10zm0 0"/><path d="m216 136c5.519531 0 10-4.480469 10-10s-4.480469-10-10-10-10 4.480469-10 10 4.480469 10 10 10zm0 0"/><path d="m10 266h32.960938c34.773437 34.070312 56.574218 78.902344 61.804687 127.089844l-31.546875 31.550781c-3.90625 3.90625-3.90625 10.238281 0 14.140625 3.90625 3.90625 10.234375 3.90625 14.140625 0l31.550781-31.546875c48.1875 5.234375 93.019532 27.035156 127.089844 61.808594v32.957031c0 5.523438 4.476562 10 10 10 5.519531 0 10-4.476562 10-10v-32.96875c30.578125-31.230469 69.238281-51.800781 112.0625-59.574219 4.945312-.898437 10-1.621093 15.085938-2.164062l31.488281 31.488281c3.910156 3.90625 10.238281 3.90625 14.144531 0 3.90625-3.902344 3.90625-10.234375 0-14.140625l-31.539062-31.542969c5.222656-48.191406 27.019531-93.023437 61.796874-127.097656h32.960938c5.523438 0 10-4.476562 10-10s-4.476562-10-10-10h-32.960938c-34.773437-34.070312-56.574218-78.902344-61.804687-127.089844l31.546875-31.550781c3.90625-3.90625 3.90625-10.238281 0-14.140625-3.90625-3.90625-10.234375-3.90625-14.140625 0l-31.550781 31.546875c-48.1875-5.230469-93.019532-27.035156-127.089844-61.804687v-32.960938c0-5.523438-4.476562-10-10-10s-10 4.476562-10 10v32.960938c-34.058594 34.761718-78.894531 56.5625-127.09375 61.804687l-31.546875-31.546875c-3.902344-3.90625-10.234375-3.90625-14.140625 0s-3.90625 10.238281 0 14.140625l31.414062 31.417969c-5.070312 48.199218-26.828124 93.082031-61.671874 127.222656h-32.960938c-5.523438 0-10 4.476562-10 10s4.476562 10 10 10zm60.359375 0h73.878906c11.453125 18.957031 20.6875 39.121094 27.527344 60.09375l-49.34375 49.339844c-7.21875-40.46875-25.183594-78.222656-52.0625-109.433594zm185.640625-40c16.546875 0 30 13.433594 30 30s-13.429688 30-30 30c-16.546875 0-30-13.433594-30-30s13.429688-30 30-30zm-27.574219 71.71875c5.34375 3.546875 11.292969 6.011719 17.574219 7.28125v39.667969c-14.242188-7.882813-29.074219-14.625-44.359375-20.167969zm37.574219 7.28125c6.28125-1.269531 12.230469-3.734375 17.574219-7.28125l26.75 26.75c-15.296875 5.511719-30.117188 12.230469-44.324219 20.082031zm31.71875-21.425781c3.546875-5.34375 6.011719-11.300781 7.28125-17.585938h39.664062c-7.875 14.230469-14.613281 29.074219-20.160156 44.375zm7.28125-37.574219c-1.269531-6.28125-3.734375-12.230469-7.28125-17.574219l26.785156-26.785156c5.542969 15.285156 12.285156 30.121094 20.164063 44.359375zm-21.425781-31.71875c-5.34375-3.546875-11.292969-6.011719-17.574219-7.28125v-39.667969c14.238281 7.878907 29.074219 14.625 44.359375 20.164063zm-37.574219-7.28125c-6.285156 1.269531-12.234375 3.734375-17.574219 7.28125l-26.785156-26.785156c15.289063-5.542969 30.121094-12.285156 44.359375-20.164063zm-31.71875 21.425781c-3.546875 5.339844-6.011719 11.289063-7.28125 17.574219h-39.679688c7.882813-14.25 14.617188-29.09375 20.144532-44.390625zm-7.28125 37.574219c1.269531 6.28125 3.734375 12.230469 7.28125 17.574219l-26.785156 26.785156c-5.539063-15.269531-12.28125-30.105469-20.164063-44.359375zm-70.4375 123.578125 49.34375-49.34375c20.992188 6.84375 41.160156 16.082031 60.09375 27.53125v73.875c-31.210938-26.878906-68.964844-44.84375-109.4375-52.0625zm237.921875.203125c-40.480469 7.347656-77.5625 25.128906-108.484375 51.832031v-73.964843c18.871094-11.417969 39.03125-20.625 60.070312-27.433594l16.046876 16.046875c-4.300782 1.214843-8.574219 2.523437-12.789063 3.941406-5.230469 1.761719-8.046875 7.433594-6.285156 12.667969 1.753906 5.21875 7.410156 8.054687 12.667969 6.289062 7.460937-2.511718 15.121093-4.667968 22.832031-6.472656l16.929687 16.929688c-.328125.058593-.660156.105468-.988281.164062zm15.101563-14.339844-16.921876-16.917968c4.730469-20.109376 11.949219-39.5625 21.511719-57.898438 2.554688-4.898438.652344-10.9375-4.242187-13.492188-4.898438-2.554687-10.9375-.652343-13.492188 4.242188-8.445312 16.199219-15.203125 33.203125-20.179687 50.742188l-16.023438-16.023438c6.855469-21.019531 16.089844-41.199219 27.53125-60.105469h73.871094c-26.878906 31.214844-44.84375 68.980469-52.054687 109.453125zm52.054687-129.441406h-73.871094c-11.449219-18.925781-20.6875-39.09375-27.535156-60.09375l49.34375-49.34375c7.21875 40.472656 25.183594 78.226562 52.0625 109.4375zm-66.203125-123.578125-49.34375 49.34375c-21-6.847656-41.167969-16.085937-60.09375-27.535156v-73.871094c31.210938 26.875 68.964844 44.84375 109.4375 52.0625zm-129.4375-52.0625v73.871094c-18.921875 11.445312-39.089844 20.683593-60.09375 27.535156l-16.027344-16.027344c4.304688-1.226562 8.582032-2.546875 12.800782-3.976562 5.230468-1.773438 8.035156-7.449219 6.261718-12.683594-1.773437-5.226563-7.453125-8.03125-12.683594-6.257813-7.457031 2.527344-15.101562 4.695313-22.785156 6.507813l-16.910156-16.90625c40.476562-7.226563 78.234375-25.191406 109.4375-52.0625zm-123.671875 66.109375 16.945313 16.945312c-4.699219 20.105469-11.90625 39.585938-21.464844 57.972657-2.550782 4.898437-.644532 10.9375 4.257812 13.484375 4.898438 2.546875 10.9375.640625 13.484375-4.257813 8.441407-16.230469 15.183594-33.25 20.136719-50.785156l16.035156 16.035156c-6.820312 21.015625-16.046875 41.199219-27.5 60.136719h-73.863281c26.917969-31.257812 44.855469-69.046875 51.96875-109.53125zm0 0"/></svg>