<svg height="512pt" viewBox="0 -16 512.00188 512" width="512pt" xmlns="http://www.w3.org/2000/svg"><path d="m256 10c-88.367188 0-160 71.632812-160 160v263.179688l319.929688-.039063.070312-.140625v-263c0-88.367188-71.628906-160-160-160zm0 0" fill="#4a696f"/><path d="m502 470h-492c6.792969 0 13.492188-.789062 20-2.328125 24.617188-5.773437 27.507812-14.320313 66-34.492187 45.210938-23.667969 102.582031-43.179688 160-43.179688 57.390625 0 114.730469 19.492188 159.929688 43.140625 13.332031 6.980469 25.601562 14.320313 36.511718 21.621094 15.140625 10.121093 32.320313 15.238281 49.558594 15.238281zm0 0" fill="#90e36a"/><path d="m326 140v40h-50v90h-40v-90h-50v-40h50v-50h40v50zm0 0" fill="#deecf1"/><path d="m176 340c5.519531 0 10-4.480469 10-10s-4.480469-10-10-10-10 4.480469-10 10 4.480469 10 10 10zm0 0"/><path d="m186 190h40v80c0 5.523438 4.476562 10 10 10h40c5.523438 0 10-4.476562 10-10v-80h40c5.523438 0 10-4.476562 10-10v-40c0-5.523438-4.476562-10-10-10h-40v-40c0-5.523438-4.476562-10-10-10h-40c-5.523438 0-10 4.476562-10 10v40h-40c-5.523438 0-10 4.476562-10 10v40c0 5.523438 4.476562 10 10 10zm10-40h40c5.523438 0 10-4.476562 10-10v-40h20v40c0 5.523438 4.476562 10 10 10h40v20h-40c-5.523438 0-10 4.476562-10 10v80h-20v-80c0-5.523438-4.476562-10-10-10h-40zm0 0"/><path d="m216 320c-5.523438 0-10 4.476562-10 10s4.476562 10 10 10h120c5.523438 0 10-4.476562 10-10s-4.476562-10-10-10zm0 0"/><path d="m509.074219 417.074219c3.902343-3.90625 3.902343-10.238281 0-14.144531-3.90625-3.90625-10.238281-3.90625-14.144531 0l-12.929688 12.929687-12.929688-12.929687c-3.902343-3.90625-10.234374-3.90625-14.140624 0s-3.90625 10.238281 0 14.144531l17.070312 17.070312v19.808594c-4.847656-2.019531-9.535156-4.519531-13.996094-7.503906-10.085937-6.746094-20.828125-13.210938-32.003906-19.269531v-257.179688c0-93.738281-76.261719-170-170-170s-170 76.261719-170 170v257.183594c-11.210938 6.078125-21.957031 12.542968-32.003906 19.269531-4.457032 2.984375-9.140625 5.476563-13.996094 7.496094v-19.804688l17.070312-17.070312c3.90625-3.90625 3.90625-10.238281 0-14.144531-3.902343-3.90625-10.234374-3.90625-14.140624 0l-12.929688 12.929687-12.929688-12.929687c-3.902343-3.90625-10.234374-3.90625-14.140624 0-3.90625 3.90625-3.90625 10.238281 0 14.144531l17.070312 17.070312v25.199219c-3.3125.433594-6.652344.65625-10 .65625-5.523438 0-10 4.480469-10 10 0 5.523438 4.476562 10 10 10h492c5.523438 0 10-4.476562 10-10 0-5.519531-4.476562-10-10-10-3.34375 0-6.679688-.222656-10-.660156v-25.195313zm-253.074219-397.074219c82.710938 0 150 67.289062 150 150v247.011719c-50.292969-23.9375-103.011719-37.011719-150-37.011719-46.996094 0-99.707031 13.074219-150 37.015625v-247.015625c0-82.710938 67.292969-150 150-150zm-186.210938 440c52.96875-34.25 122.367188-60 186.210938-60 63.339844 0 132.679688 25.386719 186.210938 60zm0 0"/></svg>